<svg width="28" height="24" viewBox="0 0 28 24" fill="none" xmlns="http://www.w3.org/2000/svg">
<path d="M27.523 1.62341C26.7253 4.60028 24.9677 7.23076 22.5227 9.10689C20.0777 10.983 17.0819 11.9999 14 11.9999C10.9181 11.9999 7.92237 10.983 5.47735 9.10689C3.03233 7.23076 1.2747 4.60028 0.477051 1.62341L4.34075 0.588135C4.9105 2.71447 6.16595 4.59339 7.9124 5.93348C9.65884 7.27357 11.7987 7.99995 14 7.99995C16.2014 7.99995 18.3412 7.27357 20.0876 5.93348C21.8341 4.59339 23.0895 2.71447 23.6593 0.588135L27.523 1.62341Z" fill="#C9C7C5"/>
<path d="M27.523 13.6234C26.7253 16.6003 24.9677 19.2308 22.5227 21.1069C20.0777 22.983 17.0819 23.9999 14 23.9999C10.9181 23.9999 7.92237 22.983 5.47735 21.1069C3.03233 19.2308 1.2747 16.6003 0.477051 13.6234L4.34075 12.5881C4.9105 14.7145 6.16595 16.5934 7.9124 17.9335C9.65884 19.2736 11.7987 19.9999 14 19.9999C16.2014 19.9999 18.3412 19.2736 20.0876 17.9335C21.8341 16.5934 23.0895 14.7145 23.6593 12.5881L27.523 13.6234Z" fill="#C9C7C5"/>
</svg>
