<svg width="44" height="44" viewBox="0 0 44 44" fill="none" xmlns="http://www.w3.org/2000/svg">
<circle cx="22.2677" cy="22.1024" r="19.2323" fill="#434343" stroke="#202020" stroke-width="5"/>
<g clip-path="url(#clip0_501_3370)">
<path d="M16.9896 25.8819L26.5726 16.2989L25.2365 14.9628L15.6536 24.5458V25.8819H16.9896ZM17.7729 27.7716H13.7638V23.7625L24.5685 12.9578C24.7457 12.7806 24.986 12.6811 25.2365 12.6811C25.4871 12.6811 25.7274 12.7806 25.9046 12.9578L28.5777 15.6308C28.7548 15.808 28.8543 16.0483 28.8543 16.2989C28.8543 16.5494 28.7548 16.7897 28.5777 16.9669L17.7729 27.7716V27.7716ZM13.7638 29.6614H30.7717V31.5512H13.7638V29.6614Z" fill="#FEFEFE"/>
</g>
<defs>
<clipPath id="clip0_501_3370">
<rect width="22.6772" height="22.6772" fill="white" transform="translate(10.9291 10.7637)"/>
</clipPath>
</defs>
</svg>
