<svg width="48" height="48" viewBox="0 0 48 48" fill="none" xmlns="http://www.w3.org/2000/svg">
<rect width="48" height="48" rx="24" fill="#FFCE5C"/>
<path fill-rule="evenodd" clip-rule="evenodd" d="M36 14C37.1046 14 38 14.8954 38 16L38 22C38 23.1046 37.1046 24 36 24C34.8954 24 34 23.1046 34 22L34 16C34 14.8954 34.8954 14 36 14Z" fill="#705600"/>
<path fill-rule="evenodd" clip-rule="evenodd" d="M12 14C13.1046 14 14 14.8954 14 16L14 22C14 23.1046 13.1046 24 12 24C10.8954 24 10 23.1046 10 22L10 16C10 14.8954 10.8954 14 12 14Z" fill="#705600"/>
<path fill-rule="evenodd" clip-rule="evenodd" d="M34.1769 28.6563C35.2438 28.9422 35.877 30.0389 35.5911 31.1058C34.9074 33.6574 33.4008 35.9121 31.3051 37.5202C29.2094 39.1283 26.6416 40 24 40C21.3584 40 18.7906 39.1283 16.6948 37.5202C14.5991 35.9121 13.0926 33.6574 12.4089 31.1058C12.123 30.0389 12.7561 28.9422 13.8231 28.6563C14.89 28.3705 15.9867 29.0036 16.2726 30.0706C16.7284 31.7716 17.7327 33.2748 19.1299 34.3468C20.527 35.4189 22.2389 36 24 36C25.761 36 27.4729 35.4189 28.8701 34.3468C30.2672 33.2748 31.2716 31.7716 31.7274 30.0706C32.0133 29.0036 33.1099 28.3705 34.1769 28.6563Z" fill="#705600"/>
</svg>
