<svg width="120" height="120" viewBox="0 0 120 120" fill="none" xmlns="http://www.w3.org/2000/svg">
<rect width="120" height="120" rx="60" fill="#FFCE5C"/>
<path fill-rule="evenodd" clip-rule="evenodd" d="M90 35C92.7614 35 95 37.2386 95 40L95 55C95 57.7614 92.7614 60 90 60C87.2386 60 85 57.7614 85 55L85 40C85 37.2386 87.2386 35 90 35Z" fill="#705600"/>
<path fill-rule="evenodd" clip-rule="evenodd" d="M30 35C32.7614 35 35 37.2386 35 40L35 55C35 57.7614 32.7614 60 30 60C27.2386 60 25 57.7614 25 55L25 40C25 37.2386 27.2386 35 30 35Z" fill="#705600"/>
<path fill-rule="evenodd" clip-rule="evenodd" d="M85.4422 71.6409C88.1095 72.3556 89.6924 75.0972 88.9777 77.7646C87.2685 84.1436 83.5021 89.7803 78.2628 93.8006C73.0235 97.8209 66.604 100 60 100C53.3959 100 46.9765 97.8209 41.7371 93.8006C36.4978 89.7803 32.7314 84.1436 31.0222 77.7646C30.3075 75.0972 31.8904 72.3556 34.5577 71.6409C37.2251 70.9261 39.9667 72.5091 40.6815 75.1764C41.821 79.4291 44.3319 83.1869 47.8247 85.8671C51.3176 88.5473 55.5973 90 60 90C64.4027 90 68.6823 88.5473 72.1752 85.8671C75.6681 83.1869 78.179 79.4291 79.3185 75.1764C80.0332 72.5091 82.7749 70.9261 85.4422 71.6409Z" fill="#705600"/>
</svg>
