<svg width="120" height="120" viewBox="0 0 120 120" fill="none" xmlns="http://www.w3.org/2000/svg">
<rect width="120" height="120" rx="60" fill="#9BB168"/>
<path fill-rule="evenodd" clip-rule="evenodd" d="M79.2597 41.1418C81.0796 40.388 83.0302 40 85 40C86.9698 40 88.9204 40.388 90.7403 41.1418C92.5601 41.8956 94.2137 43.0005 95.6066 44.3934C96.9995 45.7863 98.1044 47.4399 98.8582 49.2597C99.612 51.0796 100 53.0302 100 55C100 57.7614 97.7614 60 95 60C92.2386 60 90 57.7614 90 55C90 54.3434 89.8707 53.6932 89.6194 53.0866C89.3681 52.48 88.9998 51.9288 88.5355 51.4645C88.0712 51.0002 87.52 50.6319 86.9134 50.3806C86.3068 50.1293 85.6566 50 85 50C84.3434 50 83.6932 50.1293 83.0866 50.3806C82.48 50.6319 81.9288 51.0002 81.4645 51.4645C81.0002 51.9288 80.6319 52.48 80.3806 53.0866C80.1293 53.6932 80 54.3434 80 55C80 57.7614 77.7614 60 75 60C72.2386 60 70 57.7614 70 55C70 53.0302 70.388 51.0796 71.1418 49.2597C71.8956 47.4399 73.0005 45.7863 74.3934 44.3934C75.7863 43.0005 77.4399 41.8956 79.2597 41.1418Z" fill="#3D4A26"/>
<path fill-rule="evenodd" clip-rule="evenodd" d="M85.4422 71.6409C88.1095 72.3556 89.6924 75.0972 88.9777 77.7646C87.2685 84.1436 83.5021 89.7803 78.2628 93.8006C73.0235 97.8209 66.604 100 60 100C53.3959 100 46.9765 97.8209 41.7371 93.8006C36.4978 89.7803 32.7314 84.1436 31.0222 77.7646C30.3075 75.0972 31.8904 72.3556 34.5577 71.6409C37.2251 70.9261 39.9667 72.5091 40.6815 75.1764C41.821 79.4291 44.3319 83.1869 47.8247 85.8671C51.3176 88.5473 55.5973 90 60 90C64.4027 90 68.6823 88.5473 72.1752 85.8671C75.6681 83.1869 78.179 79.4291 79.3185 75.1764C80.0332 72.5091 82.7749 70.9261 85.4422 71.6409Z" fill="#3D4A26"/>
<path fill-rule="evenodd" clip-rule="evenodd" d="M29.2597 41.1418C31.0796 40.388 33.0302 40 35 40C36.9698 40 38.9204 40.388 40.7403 41.1418C42.5601 41.8956 44.2137 43.0005 45.6066 44.3934C46.9995 45.7863 48.1044 47.4399 48.8582 49.2597C49.612 51.0796 50 53.0302 50 55C50 57.7614 47.7614 60 45 60C42.2386 60 40 57.7614 40 55C40 54.3434 39.8707 53.6932 39.6194 53.0866C39.3681 52.48 38.9998 51.9288 38.5355 51.4645C38.0712 51.0002 37.52 50.6319 36.9134 50.3806C36.3068 50.1293 35.6566 50 35 50C34.3434 50 33.6932 50.1293 33.0866 50.3806C32.48 50.6319 31.9288 51.0002 31.4645 51.4645C31.0002 51.9288 30.6319 52.48 30.3806 53.0866C30.1293 53.6932 30 54.3434 30 55C30 57.7614 27.7614 60 25 60C22.2386 60 20 57.7614 20 55C20 53.0302 20.388 51.0796 21.1418 49.2597C21.8956 47.4399 23.0005 45.7863 24.3934 44.3934C25.7863 43.0005 27.4399 41.8956 29.2597 41.1418Z" fill="#3D4A26"/>
</svg>
