<svg width="169" height="168" viewBox="0 0 169 168" fill="none" xmlns="http://www.w3.org/2000/svg">
<g filter="url(#filter0_d_719_36515)">
<rect x="4.5" width="160" height="160" rx="80" fill="#CFD9B5" shape-rendering="crispEdges"/>
<path fill-rule="evenodd" clip-rule="evenodd" d="M110.18 54.8557C112.606 53.8506 115.207 53.3333 117.833 53.3333C120.46 53.3333 123.06 53.8506 125.487 54.8557C127.914 55.8608 130.118 57.334 131.975 59.1912C133.833 61.0483 135.306 63.2531 136.311 65.6796C137.316 68.1062 137.833 70.7069 137.833 73.3333C137.833 77.0152 134.849 80 131.167 80C127.485 80 124.5 77.0152 124.5 73.3333C124.5 72.4578 124.328 71.5909 123.993 70.7821C123.658 69.9733 123.166 69.2383 122.547 68.6193C121.928 68.0002 121.193 67.5091 120.385 67.1741C119.576 66.8391 118.709 66.6666 117.833 66.6666C116.958 66.6666 116.091 66.8391 115.282 67.1741C114.473 67.5091 113.738 68.0002 113.119 68.6193C112.5 69.2383 112.009 69.9733 111.674 70.7821C111.339 71.5909 111.167 72.4578 111.167 73.3333C111.167 77.0152 108.182 80 104.5 80C100.818 80 97.8333 77.0152 97.8333 73.3333C97.8333 70.7069 98.3507 68.1062 99.3558 65.6796C100.361 63.2531 101.834 61.0484 103.691 59.1912C105.548 57.334 107.753 55.8608 110.18 54.8557Z" fill="#3D4A26"/>
<path fill-rule="evenodd" clip-rule="evenodd" d="M118.423 95.521C121.98 96.4739 124.09 100.13 123.137 103.686C120.858 112.191 115.836 119.707 108.851 125.067C101.865 130.428 93.3055 133.333 84.5001 133.333C75.6947 133.333 67.1354 130.428 60.1496 125.067C53.1639 119.707 48.1421 112.191 45.8631 103.686C44.9101 100.13 47.0207 96.4739 50.5771 95.521C54.1335 94.568 57.7891 96.6786 58.7421 100.235C60.2614 105.905 63.6093 110.916 68.2665 114.489C72.9236 118.063 78.6299 120 84.5001 120C90.3703 120 96.0766 118.063 100.734 114.489C105.391 110.916 108.739 105.905 110.258 100.235C111.211 96.6786 114.867 94.568 118.423 95.521Z" fill="#3D4A26"/>
<path fill-rule="evenodd" clip-rule="evenodd" d="M43.513 54.8557C45.9395 53.8506 48.5402 53.3333 51.1667 53.3333C53.7931 53.3333 56.3938 53.8506 58.8203 54.8557C61.2468 55.8608 63.4516 57.334 65.3088 59.1912C67.166 61.0483 68.6392 63.2531 69.6442 65.6796C70.6493 68.1062 71.1667 70.7069 71.1667 73.3333C71.1667 77.0152 68.1819 80 64.5 80C60.8181 80 57.8333 77.0152 57.8333 73.3333C57.8333 72.4578 57.6609 71.5909 57.3259 70.7821C56.9908 69.9733 56.4998 69.2383 55.8807 68.6193C55.2616 68.0002 54.5267 67.5091 53.7179 67.1741C52.909 66.8391 52.0421 66.6666 51.1667 66.6666C50.2912 66.6666 49.4243 66.8391 48.6154 67.1741C47.8066 67.5091 47.0717 68.0002 46.4526 68.6193C45.8336 69.2383 45.3425 69.9733 45.0075 70.7821C44.6724 71.5909 44.5 72.4578 44.5 73.3333C44.5 77.0152 41.5152 80 37.8333 80C34.1514 80 31.1667 77.0152 31.1667 73.3333C31.1667 70.7069 31.684 68.1062 32.6891 65.6796C33.6942 63.2531 35.1673 61.0484 37.0245 59.1912C38.8817 57.334 41.0865 55.8608 43.513 54.8557Z" fill="#3D4A26"/>
</g>
<defs>
<filter id="filter0_d_719_36515" x="0.5" y="0" width="168" height="168" filterUnits="userSpaceOnUse" color-interpolation-filters="sRGB">
<feFlood flood-opacity="0" result="BackgroundImageFix"/>
<feColorMatrix in="SourceAlpha" type="matrix" values="0 0 0 0 0 0 0 0 0 0 0 0 0 0 0 0 0 0 127 0" result="hardAlpha"/>
<feOffset dy="4"/>
<feGaussianBlur stdDeviation="2"/>
<feComposite in2="hardAlpha" operator="out"/>
<feColorMatrix type="matrix" values="0 0 0 0 0 0 0 0 0 0 0 0 0 0 0 0 0 0 0.25 0"/>
<feBlend mode="normal" in2="BackgroundImageFix" result="effect1_dropShadow_719_36515"/>
<feBlend mode="normal" in="SourceGraphic" in2="effect1_dropShadow_719_36515" result="shape"/>
</filter>
</defs>
</svg>
