<svg width="161" height="160" viewBox="0 0 161 160" fill="none" xmlns="http://www.w3.org/2000/svg">
<rect x="0.5" width="160" height="160" rx="80" fill="#FFEBC2"/>
<path fill-rule="evenodd" clip-rule="evenodd" d="M120.5 46.6667C124.182 46.6667 127.167 49.6515 127.167 53.3334L127.167 73.3334C127.167 77.0153 124.182 80 120.5 80C116.818 80 113.833 77.0153 113.833 73.3334L113.833 53.3334C113.833 49.6515 116.818 46.6667 120.5 46.6667Z" fill="#705600"/>
<path fill-rule="evenodd" clip-rule="evenodd" d="M40.5 46.6667C44.1819 46.6667 47.1666 49.6515 47.1666 53.3334L47.1666 73.3334C47.1666 77.0153 44.1819 80 40.5 80C36.8181 80 33.8333 77.0153 33.8333 73.3334L33.8333 53.3334C33.8333 49.6515 36.8181 46.6667 40.5 46.6667Z" fill="#705600"/>
<path fill-rule="evenodd" clip-rule="evenodd" d="M114.423 95.521C117.979 96.4739 120.09 100.13 119.137 103.686C116.858 112.191 111.836 119.707 104.85 125.067C97.8646 130.428 89.3053 133.333 80.4999 133.333C71.6945 133.333 63.1352 130.428 56.1494 125.067C49.1637 119.707 44.1418 112.191 41.8628 103.686C40.9099 100.13 43.0205 96.4739 46.5769 95.521C50.1333 94.568 53.7889 96.6786 54.7419 100.235C56.2612 105.905 59.6091 110.916 64.2662 114.489C68.9234 118.063 74.6296 120 80.4999 120C86.3701 120 92.0763 118.063 96.7335 114.489C101.391 110.916 104.739 105.905 106.258 100.235C107.211 96.6786 110.866 94.568 114.423 95.521Z" fill="#705600"/>
</svg>
