<svg width="161" height="160" viewBox="0 0 161 160" fill="none" xmlns="http://www.w3.org/2000/svg">
<rect x="0.5" width="160" height="160" rx="80" fill="#BDA193"/>
<path fill-rule="evenodd" clip-rule="evenodd" d="M120.5 46.6667C124.182 46.6667 127.167 49.6515 127.167 53.3334L127.167 73.3334C127.167 77.0153 124.182 80 120.5 80C116.818 80 113.833 77.0153 113.833 73.3334L113.833 53.3334C113.833 49.6515 116.818 46.6667 120.5 46.6667Z" fill="#4B3425"/>
<path fill-rule="evenodd" clip-rule="evenodd" d="M40.5 46.6667C44.1819 46.6667 47.1667 49.6515 47.1667 53.3334L47.1667 73.3334C47.1667 77.0153 44.1819 80 40.5 80C36.8181 80 33.8334 77.0153 33.8334 73.3334L33.8334 53.3334C33.8334 49.6515 36.8181 46.6667 40.5 46.6667Z" fill="#4B3425"/>
<path fill-rule="evenodd" clip-rule="evenodd" d="M33.8334 106.667C33.8334 102.985 36.8181 100 40.5 100H120.5C124.182 100 127.167 102.985 127.167 106.667C127.167 110.349 124.182 113.333 120.5 113.333H40.5C36.8181 113.333 33.8334 110.349 33.8334 106.667Z" fill="#4B3425"/>
</svg>
