<svg width="161" height="160" viewBox="0 0 161 160" fill="none" xmlns="http://www.w3.org/2000/svg">
<rect x="0.5" width="160" height="160" rx="80" fill="#FEAF8F"/>
<path fill-rule="evenodd" clip-rule="evenodd" d="M56.1498 94.9325C63.1356 89.5722 71.6949 86.6667 80.5003 86.6667C89.3056 86.6667 97.8649 89.5722 104.851 94.9326C111.836 100.293 116.858 107.809 119.137 116.314C120.09 119.87 117.98 123.526 114.423 124.479C110.867 125.432 107.211 123.321 106.258 119.765C104.739 114.095 101.391 109.084 96.7339 105.511C92.0767 101.937 86.3705 100 80.5003 100C74.63 100 68.9238 101.937 64.2666 105.511C59.6094 109.084 56.2616 114.095 54.7422 119.765C53.7893 123.321 50.1337 125.432 46.5773 124.479C43.0208 123.526 40.9103 119.87 41.8632 116.314C44.1422 107.809 49.164 100.293 56.1498 94.9325Z" fill="#702901"/>
<path fill-rule="evenodd" clip-rule="evenodd" d="M40.5 46.6667C44.1819 46.6667 47.1667 49.6515 47.1667 53.3334V73.3334C47.1667 77.0153 44.1819 80 40.5 80C36.8181 80 33.8334 77.0153 33.8334 73.3334V53.3334C33.8334 49.6515 36.8181 46.6667 40.5 46.6667Z" fill="#702901"/>
<path fill-rule="evenodd" clip-rule="evenodd" d="M120.5 46.6667C124.182 46.6667 127.167 49.6515 127.167 53.3334V73.3334C127.167 77.0153 124.182 80 120.5 80C116.818 80 113.833 77.0153 113.833 73.3334V53.3334C113.833 49.6515 116.818 46.6667 120.5 46.6667Z" fill="#702901"/>
</svg>
