<svg width="120" height="120" viewBox="0 0 120 120" fill="none" xmlns="http://www.w3.org/2000/svg">
<rect width="120" height="120" rx="60" fill="#ED7E1C"/>
<path fill-rule="evenodd" clip-rule="evenodd" d="M41.7371 71.1994C46.9765 67.1791 53.396 65 60 65C66.604 65 73.0235 67.1791 78.2628 71.1994C83.5021 75.2197 87.2685 80.8564 88.9777 87.2354C89.6925 89.9028 88.1095 92.6445 85.4422 93.3592C82.7749 94.0739 80.0332 92.491 79.3185 89.8236C78.179 85.571 75.6681 81.8131 72.1752 79.1329C68.6823 76.4528 64.4027 75 60 75C55.5973 75 51.3176 76.4527 47.8247 79.1329C44.3319 81.8131 41.821 85.5709 40.6815 89.8236C39.9667 92.4909 37.2251 94.0739 34.5577 93.3591C31.8904 92.6444 30.3075 89.9028 31.0222 87.2354C32.7314 80.8564 36.4978 75.2197 41.7371 71.1994Z" fill="#663600"/>
<path fill-rule="evenodd" clip-rule="evenodd" d="M30 35C32.7614 35 35 37.2386 35 40V55C35 57.7614 32.7614 60 30 60C27.2386 60 25 57.7614 25 55V40C25 37.2386 27.2386 35 30 35Z" fill="#663600"/>
<path fill-rule="evenodd" clip-rule="evenodd" d="M90 35C92.7614 35 95 37.2386 95 40V55C95 57.7614 92.7614 60 90 60C87.2386 60 85 57.7614 85 55V40C85 37.2386 87.2386 35 90 35Z" fill="#663600"/>
</svg>
