<svg width="120" height="120" viewBox="0 0 120 120" fill="none" xmlns="http://www.w3.org/2000/svg">
<rect width="120" height="120" rx="60" fill="#A694F5"/>
<path fill-rule="evenodd" clip-rule="evenodd" d="M76.4645 31.4645C78.4171 29.5118 81.5829 29.5118 83.5355 31.4645L98.5355 46.4645C100.488 48.4171 100.488 51.5829 98.5355 53.5355C96.5829 55.4882 93.4171 55.4882 91.4645 53.5355L76.4645 38.5355C74.5118 36.5829 74.5118 33.4171 76.4645 31.4645Z" fill="#3C357C"/>
<path fill-rule="evenodd" clip-rule="evenodd" d="M98.5355 31.4645C100.488 33.4171 100.488 36.5829 98.5355 38.5355L83.5355 53.5355C81.5829 55.4882 78.4171 55.4882 76.4645 53.5355C74.5118 51.5829 74.5118 48.4171 76.4645 46.4645L91.4645 31.4645C93.4171 29.5118 96.5829 29.5118 98.5355 31.4645Z" fill="#3C357C"/>
<path fill-rule="evenodd" clip-rule="evenodd" d="M21.4645 31.4645C23.4171 29.5118 26.5829 29.5118 28.5355 31.4645L43.5355 46.4645C45.4882 48.4171 45.4882 51.5829 43.5355 53.5355C41.5829 55.4882 38.4171 55.4882 36.4645 53.5355L21.4645 38.5355C19.5118 36.5829 19.5118 33.4171 21.4645 31.4645Z" fill="#3C357C"/>
<path fill-rule="evenodd" clip-rule="evenodd" d="M43.5355 31.4645C45.4882 33.4171 45.4882 36.5829 43.5355 38.5355L28.5355 53.5355C26.5829 55.4882 23.4171 55.4882 21.4645 53.5355C19.5118 51.5829 19.5118 48.4171 21.4645 46.4645L36.4645 31.4645C38.4171 29.5118 41.5829 29.5118 43.5355 31.4645Z" fill="#3C357C"/>
<path fill-rule="evenodd" clip-rule="evenodd" d="M41.7371 71.1994C46.9765 67.1791 53.396 65 60 65C66.604 65 73.0235 67.1791 78.2628 71.1994C83.5021 75.2197 87.2685 80.8564 88.9777 87.2354C89.6925 89.9028 88.1095 92.6445 85.4422 93.3592C82.7749 94.0739 80.0332 92.491 79.3185 89.8236C78.179 85.571 75.6681 81.8131 72.1752 79.1329C68.6823 76.4528 64.4027 75 60 75C55.5973 75 51.3176 76.4527 47.8247 79.1329C44.3319 81.8131 41.821 85.5709 40.6815 89.8236C39.9667 92.4909 37.2251 94.0739 34.5577 93.3591C31.8904 92.6444 30.3075 89.9028 31.0222 87.2354C32.7314 80.8564 36.4978 75.2197 41.7371 71.1994Z" fill="#3C357C"/>
</svg>
