<svg width="161" height="160" viewBox="0 0 161 160" fill="none" xmlns="http://www.w3.org/2000/svg">
<rect x="0.5" width="160" height="160" rx="80" fill="#CBC2FF"/>
<path fill-rule="evenodd" clip-rule="evenodd" d="M102.453 41.9526C105.056 39.3491 109.277 39.3491 111.881 41.9526L131.881 61.9526C134.484 64.5561 134.484 68.7772 131.881 71.3807C129.277 73.9842 125.056 73.9842 122.453 71.3807L102.453 51.3807C99.8491 48.7772 99.8491 44.5561 102.453 41.9526Z" fill="#1C0070"/>
<path fill-rule="evenodd" clip-rule="evenodd" d="M131.881 41.9526C134.484 44.5561 134.484 48.7772 131.881 51.3807L111.881 71.3807C109.277 73.9842 105.056 73.9842 102.453 71.3807C99.8492 68.7772 99.8492 64.5561 102.453 61.9526L122.453 41.9526C125.056 39.3491 129.277 39.3491 131.881 41.9526Z" fill="#1C0070"/>
<path fill-rule="evenodd" clip-rule="evenodd" d="M29.1194 41.9526C31.7229 39.3491 35.944 39.3491 38.5475 41.9526L58.5475 61.9526C61.151 64.5561 61.151 68.7772 58.5475 71.3807C55.944 73.9842 51.7229 73.9842 49.1194 71.3807L29.1194 51.3807C26.5159 48.7772 26.5159 44.5561 29.1194 41.9526Z" fill="#1C0070"/>
<path fill-rule="evenodd" clip-rule="evenodd" d="M58.5474 41.9526C61.1509 44.5561 61.1509 48.7772 58.5474 51.3807L38.5474 71.3807C35.9439 73.9842 31.7228 73.9842 29.1193 71.3807C26.5158 68.7772 26.5158 64.5561 29.1193 61.9526L49.1193 41.9526C51.7228 39.3491 55.9439 39.3491 58.5474 41.9526Z" fill="#1C0070"/>
<path fill-rule="evenodd" clip-rule="evenodd" d="M56.1499 94.9325C63.1357 89.5722 71.695 86.6667 80.5004 86.6667C89.3057 86.6667 97.8651 89.5722 104.851 94.9326C111.837 100.293 116.858 107.809 119.137 116.314C120.09 119.87 117.98 123.526 114.423 124.479C110.867 125.432 107.211 123.321 106.258 119.765C104.739 114.095 101.391 109.084 96.734 105.511C92.0768 101.937 86.3706 100 80.5004 100C74.6301 100 68.9239 101.937 64.2667 105.511C59.6096 109.084 56.2617 114.095 54.7423 119.765C53.7894 123.321 50.1338 125.432 46.5774 124.479C43.0209 123.526 40.9104 119.87 41.8633 116.314C44.1423 107.809 49.1641 100.293 56.1499 94.9325Z" fill="#1C0070"/>
</svg>
